<mxfile host="app.diagrams.net" modified="2021-06-20T15:53:44.639Z" agent="5.0 (Windows NT 10.0; Win64; x64) AppleWebKit/537.36 (KHTML, like Gecko) Chrome/91.0.4472.77 Safari/537.36 Edg/91.0.864.41" etag="JhIz8-iks4NARji3xCsY" version="14.8.0" type="github">
  <diagram id="kgpKYQtTHZ0yAKxKKP6v" name="Page-1">
    <mxGraphModel dx="1221" dy="729" grid="0" gridSize="10" guides="1" tooltips="1" connect="1" arrows="1" fold="1" page="0" pageScale="1" pageWidth="850" pageHeight="1100" math="0" shadow="0">
      <root>
        <mxCell id="0" />
        <mxCell id="1" parent="0" />
        <mxCell id="eQV93dDQAh3jfwYA0gwR-1" value="AI" style="shape=umlActor;verticalLabelPosition=bottom;verticalAlign=top;html=1;outlineConnect=0;" parent="1" vertex="1">
          <mxGeometry x="115" y="50" width="40" height="80" as="geometry" />
        </mxCell>
        <mxCell id="eQV93dDQAh3jfwYA0gwR-3" value="" style="endArrow=none;dashed=1;html=1;entryX=0.5;entryY=0.5;entryDx=0;entryDy=0;entryPerimeter=0;" parent="1" target="eQV93dDQAh3jfwYA0gwR-1" edge="1">
          <mxGeometry width="50" height="50" relative="1" as="geometry">
            <mxPoint x="135" y="800" as="sourcePoint" />
            <mxPoint x="170" y="150" as="targetPoint" />
            <Array as="points">
              <mxPoint x="135" y="340" />
            </Array>
          </mxGeometry>
        </mxCell>
        <mxCell id="eQV93dDQAh3jfwYA0gwR-2" value="" style="html=1;points=[];perimeter=orthogonalPerimeter;" parent="1" vertex="1">
          <mxGeometry x="130" y="190" width="10" height="600" as="geometry" />
        </mxCell>
        <mxCell id="eQV93dDQAh3jfwYA0gwR-4" value="&lt;b&gt;Loop&lt;/b&gt;" style="shape=umlFrame;whiteSpace=wrap;html=1;width=50;height=15;" parent="1" vertex="1">
          <mxGeometry x="50" y="150" width="470" height="170" as="geometry" />
        </mxCell>
        <mxCell id="eQV93dDQAh3jfwYA0gwR-7" value="" style="endArrow=none;dashed=1;html=1;startArrow=none;" parent="1" source="eQV93dDQAh3jfwYA0gwR-20" edge="1">
          <mxGeometry width="50" height="50" relative="1" as="geometry">
            <mxPoint x="304.76" y="450" as="sourcePoint" />
            <mxPoint x="305" y="50" as="targetPoint" />
          </mxGeometry>
        </mxCell>
        <mxCell id="eQV93dDQAh3jfwYA0gwR-8" value="" style="html=1;points=[];perimeter=orthogonalPerimeter;" parent="1" vertex="1">
          <mxGeometry x="300" y="190" width="10" height="120" as="geometry" />
        </mxCell>
        <mxCell id="eQV93dDQAh3jfwYA0gwR-9" value="1.Login()" style="html=1;verticalAlign=bottom;endArrow=block;" parent="1" target="eQV93dDQAh3jfwYA0gwR-8" edge="1">
          <mxGeometry width="80" relative="1" as="geometry">
            <mxPoint x="140" y="200" as="sourcePoint" />
            <mxPoint x="220" y="200" as="targetPoint" />
          </mxGeometry>
        </mxCell>
        <mxCell id="eQV93dDQAh3jfwYA0gwR-10" value="2.VerifyAIIdentity()" style="html=1;verticalAlign=bottom;endArrow=block;" parent="1" target="eQV93dDQAh3jfwYA0gwR-8" edge="1">
          <mxGeometry x="-0.2089" width="80" relative="1" as="geometry">
            <mxPoint x="310" y="220" as="sourcePoint" />
            <mxPoint x="390" y="200" as="targetPoint" />
            <Array as="points">
              <mxPoint x="380" y="220" />
              <mxPoint x="380" y="239" />
            </Array>
            <mxPoint as="offset" />
          </mxGeometry>
        </mxCell>
        <mxCell id="eQV93dDQAh3jfwYA0gwR-11" value="" style="ellipse;shape=umlControl;whiteSpace=wrap;html=1;" parent="1" vertex="1">
          <mxGeometry x="445" y="30" width="80" height="90" as="geometry" />
        </mxCell>
        <mxCell id="eQV93dDQAh3jfwYA0gwR-12" value="" style="endArrow=none;dashed=1;html=1;" parent="1" edge="1">
          <mxGeometry width="50" height="50" relative="1" as="geometry">
            <mxPoint x="485" y="800" as="sourcePoint" />
            <mxPoint x="484.76" y="120" as="targetPoint" />
          </mxGeometry>
        </mxCell>
        <mxCell id="eQV93dDQAh3jfwYA0gwR-13" value="" style="html=1;points=[];perimeter=orthogonalPerimeter;" parent="1" vertex="1">
          <mxGeometry x="480" y="250" width="10" height="50" as="geometry" />
        </mxCell>
        <mxCell id="eQV93dDQAh3jfwYA0gwR-14" value="3.GetCaptainHealth_Info()" style="html=1;verticalAlign=bottom;endArrow=block;" parent="1" edge="1">
          <mxGeometry width="80" relative="1" as="geometry">
            <mxPoint x="310" y="259" as="sourcePoint" />
            <mxPoint x="480" y="259" as="targetPoint" />
          </mxGeometry>
        </mxCell>
        <mxCell id="eQV93dDQAh3jfwYA0gwR-15" value="4.GenerateCaptainHealthInfo()" style="html=1;verticalAlign=bottom;endArrow=open;dashed=1;endSize=8;" parent="1" edge="1">
          <mxGeometry x="-0.0588" relative="1" as="geometry">
            <mxPoint x="480" y="290" as="sourcePoint" />
            <mxPoint x="310" y="290" as="targetPoint" />
            <mxPoint as="offset" />
          </mxGeometry>
        </mxCell>
        <mxCell id="eQV93dDQAh3jfwYA0gwR-16" value="5.Return CaptainHealthInfo" style="html=1;verticalAlign=bottom;endArrow=open;dashed=1;endSize=8;exitX=0.033;exitY=0.904;exitDx=0;exitDy=0;exitPerimeter=0;" parent="1" source="eQV93dDQAh3jfwYA0gwR-8" edge="1">
          <mxGeometry x="0.0017" y="-9" relative="1" as="geometry">
            <mxPoint x="260" y="300" as="sourcePoint" />
            <mxPoint x="140" y="299" as="targetPoint" />
            <mxPoint as="offset" />
          </mxGeometry>
        </mxCell>
        <mxCell id="eQV93dDQAh3jfwYA0gwR-18" value="&lt;b&gt;Alternative&lt;/b&gt;" style="shape=umlFrame;whiteSpace=wrap;html=1;width=80;height=20;" parent="1" vertex="1">
          <mxGeometry x="50" y="450" width="730" height="170" as="geometry" />
        </mxCell>
        <mxCell id="eQV93dDQAh3jfwYA0gwR-19" value="" style="ellipse;shape=umlEntity;whiteSpace=wrap;html=1;" parent="1" vertex="1">
          <mxGeometry x="590" y="40" width="80" height="80" as="geometry" />
        </mxCell>
        <mxCell id="eQV93dDQAh3jfwYA0gwR-5" value="" style="shape=umlBoundary;whiteSpace=wrap;html=1;" parent="1" vertex="1">
          <mxGeometry x="260" y="40" width="80" height="70" as="geometry" />
        </mxCell>
        <mxCell id="eQV93dDQAh3jfwYA0gwR-20" value="&lt;span style=&quot;color: rgb(51 , 51 , 51) ; font-family: &amp;#34;helvetica&amp;#34; ; font-size: 12px ; font-style: italic ; font-weight: 400 ; letter-spacing: normal ; text-align: center ; text-indent: 0px ; text-transform: none ; word-spacing: 0px ; background-color: rgb(248 , 249 , 250) ; display: inline ; float: none&quot;&gt;Health Detection System Interface&lt;/span&gt;" style="text;whiteSpace=wrap;html=1;" parent="1" vertex="1">
          <mxGeometry x="260" y="110" width="130" height="30" as="geometry" />
        </mxCell>
        <mxCell id="eQV93dDQAh3jfwYA0gwR-22" value="" style="endArrow=none;dashed=1;html=1;entryX=0.354;entryY=0.053;entryDx=0;entryDy=0;entryPerimeter=0;" parent="1" target="eQV93dDQAh3jfwYA0gwR-20" edge="1">
          <mxGeometry width="50" height="50" relative="1" as="geometry">
            <mxPoint x="306" y="800" as="sourcePoint" />
            <mxPoint x="305" y="50" as="targetPoint" />
          </mxGeometry>
        </mxCell>
        <mxCell id="eQV93dDQAh3jfwYA0gwR-23" value="&lt;span style=&quot;color: rgb(0, 0, 0); font-family: helvetica; font-size: 12px; font-style: normal; font-weight: 400; letter-spacing: normal; text-align: center; text-indent: 0px; text-transform: none; word-spacing: 0px; background-color: rgb(248, 249, 250); display: inline; float: none;&quot;&gt;Health Detection System&lt;/span&gt;" style="text;whiteSpace=wrap;html=1;" parent="1" vertex="1">
          <mxGeometry x="425" y="120" width="160" height="30" as="geometry" />
        </mxCell>
        <mxCell id="eQV93dDQAh3jfwYA0gwR-24" value="&lt;span style=&quot;color: rgb(0 , 0 , 0) ; font-family: &amp;#34;helvetica&amp;#34; ; font-size: 12px ; font-style: normal ; font-weight: 400 ; letter-spacing: normal ; text-align: center ; text-indent: 0px ; text-transform: none ; word-spacing: 0px ; background-color: rgb(248 , 249 , 250) ; display: inline ; float: none&quot;&gt;Dormant Cabin&lt;/span&gt;" style="text;whiteSpace=wrap;html=1;" parent="1" vertex="1">
          <mxGeometry x="575" y="120" width="110" height="30" as="geometry" />
        </mxCell>
        <mxCell id="eQV93dDQAh3jfwYA0gwR-25" value="" style="endArrow=none;dashed=1;html=1;" parent="1" edge="1">
          <mxGeometry width="50" height="50" relative="1" as="geometry">
            <mxPoint x="630" y="800" as="sourcePoint" />
            <mxPoint x="629.58" y="120" as="targetPoint" />
          </mxGeometry>
        </mxCell>
        <mxCell id="eQV93dDQAh3jfwYA0gwR-26" value="" style="html=1;points=[];perimeter=orthogonalPerimeter;" parent="1" vertex="1">
          <mxGeometry x="625" y="340" width="10" height="20" as="geometry" />
        </mxCell>
        <mxCell id="eQV93dDQAh3jfwYA0gwR-27" value="&amp;gt;=3cancidates" style="text;html=1;strokeColor=none;fillColor=none;align=center;verticalAlign=middle;whiteSpace=wrap;rounded=0;" parent="1" vertex="1">
          <mxGeometry x="50" y="470" width="80" height="20" as="geometry" />
        </mxCell>
        <mxCell id="eQV93dDQAh3jfwYA0gwR-28" value="While(Captain_is_health()==true)&amp;nbsp;" style="text;html=1;strokeColor=none;fillColor=none;align=center;verticalAlign=middle;whiteSpace=wrap;rounded=0;" parent="1" vertex="1">
          <mxGeometry x="105" y="140" width="75" height="70" as="geometry" />
        </mxCell>
        <mxCell id="eQV93dDQAh3jfwYA0gwR-29" value="6.Wakeupallthecrew()" style="html=1;verticalAlign=bottom;endArrow=block;entryX=-0.06;entryY=0.62;entryDx=0;entryDy=0;entryPerimeter=0;" parent="1" target="eQV93dDQAh3jfwYA0gwR-26" edge="1">
          <mxGeometry width="80" relative="1" as="geometry">
            <mxPoint x="140" y="350" as="sourcePoint" />
            <mxPoint x="220" y="350" as="targetPoint" />
          </mxGeometry>
        </mxCell>
        <mxCell id="eQV93dDQAh3jfwYA0gwR-32" value="&lt;span data-lucid-type=&quot;application/vnd.lucid.text&quot; data-lucid-content=&quot;{&amp;#34;t&amp;#34;:&amp;#34;Vote for new captain&amp;#34;,&amp;#34;m&amp;#34;:[{&amp;#34;s&amp;#34;:0,&amp;#34;n&amp;#34;:&amp;#34;a&amp;#34;,&amp;#34;v&amp;#34;:&amp;#34;center&amp;#34;},{&amp;#34;s&amp;#34;:0,&amp;#34;n&amp;#34;:&amp;#34;f&amp;#34;,&amp;#34;v&amp;#34;:&amp;#34;Liberation Serif&amp;#34;,&amp;#34;e&amp;#34;:20},{&amp;#34;s&amp;#34;:0,&amp;#34;n&amp;#34;:&amp;#34;s&amp;#34;,&amp;#34;v&amp;#34;:22.44444444444444,&amp;#34;e&amp;#34;:20},{&amp;#34;s&amp;#34;:0,&amp;#34;n&amp;#34;:&amp;#34;c&amp;#34;,&amp;#34;v&amp;#34;:&amp;#34;333333ff&amp;#34;,&amp;#34;e&amp;#34;:20}]}&quot;&gt;&lt;span style=&quot;color: rgb(51 , 51 , 51)&quot;&gt;&lt;font style=&quot;font-size: 12px&quot;&gt;8.VoteforNewCaptain()&lt;/font&gt;&lt;/span&gt;&lt;/span&gt;" style="html=1;verticalAlign=bottom;endArrow=open;dashed=1;endSize=8;exitX=0.1;exitY=0.872;exitDx=0;exitDy=0;exitPerimeter=0;" parent="1" source="eQV93dDQAh3jfwYA0gwR-36" edge="1">
          <mxGeometry relative="1" as="geometry">
            <mxPoint x="600" y="380" as="sourcePoint" />
            <mxPoint x="142" y="434" as="targetPoint" />
            <mxPoint as="offset" />
          </mxGeometry>
        </mxCell>
        <mxCell id="eQV93dDQAh3jfwYA0gwR-33" value="" style="ellipse;shape=umlEntity;whiteSpace=wrap;html=1;" parent="1" vertex="1">
          <mxGeometry x="710" y="40" width="80" height="80" as="geometry" />
        </mxCell>
        <mxCell id="eQV93dDQAh3jfwYA0gwR-34" value="&lt;span style=&quot;color: rgb(0 , 0 , 0) ; font-family: &amp;#34;helvetica&amp;#34; ; font-size: 12px ; font-style: normal ; font-weight: 400 ; letter-spacing: normal ; text-align: center ; text-indent: 0px ; text-transform: none ; word-spacing: 0px ; background-color: rgb(248 , 249 , 250) ; display: inline ; float: none&quot;&gt;Spacecraft Crew&lt;/span&gt;" style="text;whiteSpace=wrap;html=1;" parent="1" vertex="1">
          <mxGeometry x="710" y="120" width="110" height="30" as="geometry" />
        </mxCell>
        <mxCell id="eQV93dDQAh3jfwYA0gwR-35" value="c&lt;span style=&quot;color: rgba(0 , 0 , 0 , 0) ; font-family: monospace ; font-size: 0px ; background-color: rgb(248 , 249 , 250)&quot;&gt;%3CmxGraphModel%3E%3Croot%3E%3CmxCell%20id%3D%220%22%2F%3E%3CmxCell%20id%3D%221%22%20parent%3D%220%22%2F%3E%3CmxCell%20id%3D%222%22%20value%3D%22%26lt%3Bspan%20style%3D%26quot%3Bcolor%3A%20rgb(51%2C%2051%2C%2051)%3B%20font-family%3A%20helvetica%3B%20font-size%3A%2012px%3B%20font-style%3A%20italic%3B%20font-weight%3A%20400%3B%20letter-spacing%3A%20normal%3B%20text-align%3A%20center%3B%20text-indent%3A%200px%3B%20text-transform%3A%20none%3B%20word-spacing%3A%200px%3B%20background-color%3A%20rgb(248%2C%20249%2C%20250)%3B%20display%3A%20inline%3B%20float%3A%20none%3B%26quot%3B%26gt%3BPersonnel%20Management%20System%20Interface%26lt%3B%2Fspan%26gt%3B%22%20style%3D%22text%3BwhiteSpace%3Dwrap%3Bhtml%3D1%3B%22%20vertex%3D%221%22%20parent%3D%221%22%3E%3CmxGeometry%20x%3D%22240%22%20y%3D%22110%22%20width%3D%22130%22%20height%3D%2230%22%20as%3D%22geometry%22%2F%3E%3C%2FmxCell%3E%3C%2Froot%3E%3C%2FmxGraphModel%3E&lt;/span&gt;" style="endArrow=none;dashed=1;html=1;" parent="1" edge="1">
          <mxGeometry x="-0.1716" y="-567" width="50" height="50" relative="1" as="geometry">
            <mxPoint x="750" y="800" as="sourcePoint" />
            <mxPoint x="749.5799999999999" y="120" as="targetPoint" />
            <mxPoint as="offset" />
          </mxGeometry>
        </mxCell>
        <mxCell id="eQV93dDQAh3jfwYA0gwR-36" value="" style="html=1;points=[];perimeter=orthogonalPerimeter;" parent="1" vertex="1">
          <mxGeometry x="745" y="390" width="10" height="50" as="geometry" />
        </mxCell>
        <mxCell id="eQV93dDQAh3jfwYA0gwR-37" value="7.LaunchanElection()" style="html=1;verticalAlign=bottom;endArrow=block;entryX=0.1;entryY=0.224;entryDx=0;entryDy=0;entryPerimeter=0;" parent="1" target="eQV93dDQAh3jfwYA0gwR-36" edge="1">
          <mxGeometry width="80" relative="1" as="geometry">
            <mxPoint x="140" y="400" as="sourcePoint" />
            <mxPoint x="220" y="400" as="targetPoint" />
          </mxGeometry>
        </mxCell>
        <mxCell id="eQV93dDQAh3jfwYA0gwR-38" value="" style="html=1;points=[];perimeter=orthogonalPerimeter;" parent="1" vertex="1">
          <mxGeometry x="745" y="470" width="10" height="50" as="geometry" />
        </mxCell>
        <mxCell id="eQV93dDQAh3jfwYA0gwR-39" value="9.LaunchnewElectionwithTopTwoCandidates" style="html=1;verticalAlign=bottom;endArrow=block;entryX=-0.14;entryY=0.192;entryDx=0;entryDy=0;entryPerimeter=0;" parent="1" target="eQV93dDQAh3jfwYA0gwR-38" edge="1">
          <mxGeometry width="80" relative="1" as="geometry">
            <mxPoint x="140" y="480" as="sourcePoint" />
            <mxPoint x="220" y="480" as="targetPoint" />
          </mxGeometry>
        </mxCell>
        <mxCell id="eQV93dDQAh3jfwYA0gwR-40" value="&lt;span data-lucid-type=&quot;application/vnd.lucid.text&quot; data-lucid-content=&quot;{&amp;#34;t&amp;#34;:&amp;#34;Vote for new captain&amp;#34;,&amp;#34;m&amp;#34;:[{&amp;#34;s&amp;#34;:0,&amp;#34;n&amp;#34;:&amp;#34;a&amp;#34;,&amp;#34;v&amp;#34;:&amp;#34;center&amp;#34;},{&amp;#34;s&amp;#34;:0,&amp;#34;n&amp;#34;:&amp;#34;f&amp;#34;,&amp;#34;v&amp;#34;:&amp;#34;Liberation Serif&amp;#34;,&amp;#34;e&amp;#34;:20},{&amp;#34;s&amp;#34;:0,&amp;#34;n&amp;#34;:&amp;#34;s&amp;#34;,&amp;#34;v&amp;#34;:22.44444444444444,&amp;#34;e&amp;#34;:20},{&amp;#34;s&amp;#34;:0,&amp;#34;n&amp;#34;:&amp;#34;c&amp;#34;,&amp;#34;v&amp;#34;:&amp;#34;333333ff&amp;#34;,&amp;#34;e&amp;#34;:20}]}&quot;&gt;&lt;span style=&quot;color: rgb(51 , 51 , 51)&quot;&gt;&lt;font style=&quot;font-size: 12px&quot;&gt;10.&lt;/font&gt;&lt;/span&gt;&lt;/span&gt;&lt;span style=&quot;color: rgb(51 , 51 , 51) ; font-size: 12px&quot;&gt;VoteforNewCaptain()&lt;/span&gt;" style="html=1;verticalAlign=bottom;endArrow=open;dashed=1;endSize=8;exitX=0.1;exitY=0.872;exitDx=0;exitDy=0;exitPerimeter=0;entryX=1.2;entryY=0.57;entryDx=0;entryDy=0;entryPerimeter=0;" parent="1" edge="1">
          <mxGeometry relative="1" as="geometry">
            <mxPoint x="745" y="514.2" as="sourcePoint" />
            <mxPoint x="141" y="510" as="targetPoint" />
            <mxPoint as="offset" />
          </mxGeometry>
        </mxCell>
        <mxCell id="eQV93dDQAh3jfwYA0gwR-45" value="" style="endArrow=none;dashed=1;html=1;entryX=1.007;entryY=0.518;entryDx=0;entryDy=0;entryPerimeter=0;" parent="1" target="eQV93dDQAh3jfwYA0gwR-18" edge="1">
          <mxGeometry width="50" height="50" relative="1" as="geometry">
            <mxPoint x="50" y="540" as="sourcePoint" />
            <mxPoint x="750" y="540" as="targetPoint" />
          </mxGeometry>
        </mxCell>
        <mxCell id="eQV93dDQAh3jfwYA0gwR-46" value="Still 2 cancidates" style="text;html=1;strokeColor=none;fillColor=none;align=center;verticalAlign=middle;whiteSpace=wrap;rounded=0;" parent="1" vertex="1">
          <mxGeometry x="50" y="540" width="100" height="20" as="geometry" />
        </mxCell>
        <mxCell id="eQV93dDQAh3jfwYA0gwR-48" value="11.ChooseNewCaptain()" style="html=1;verticalAlign=bottom;endArrow=block;" parent="1" edge="1">
          <mxGeometry x="-0.1579" width="80" relative="1" as="geometry">
            <mxPoint x="140" y="570" as="sourcePoint" />
            <mxPoint x="140" y="600" as="targetPoint" />
            <Array as="points">
              <mxPoint x="220" y="570" />
              <mxPoint x="220" y="600" />
            </Array>
            <mxPoint as="offset" />
          </mxGeometry>
        </mxCell>
        <mxCell id="eQV93dDQAh3jfwYA0gwR-49" value="" style="shape=umlBoundary;whiteSpace=wrap;html=1;" parent="1" vertex="1">
          <mxGeometry x="850" y="40" width="85" height="70" as="geometry" />
        </mxCell>
        <mxCell id="eQV93dDQAh3jfwYA0gwR-50" value="&lt;span style=&quot;color: rgb(51, 51, 51); font-family: helvetica; font-size: 12px; font-style: italic; font-weight: 400; letter-spacing: normal; text-align: center; text-indent: 0px; text-transform: none; word-spacing: 0px; background-color: rgb(248, 249, 250); display: inline; float: none;&quot;&gt;Personnel Management System Interface&lt;/span&gt;" style="text;whiteSpace=wrap;html=1;" parent="1" vertex="1">
          <mxGeometry x="840" y="110" width="130" height="30" as="geometry" />
        </mxCell>
        <mxCell id="eQV93dDQAh3jfwYA0gwR-53" value="c&lt;span style=&quot;color: rgba(0 , 0 , 0 , 0) ; font-family: monospace ; font-size: 0px ; background-color: rgb(248 , 249 , 250)&quot;&gt;%3CmxGraphModel%3E%3Croot%3E%3CmxCell%20id%3D%220%22%2F%3E%3CmxCell%20id%3D%221%22%20parent%3D%220%22%2F%3E%3CmxCell%20id%3D%222%22%20value%3D%22%26lt%3Bspan%20style%3D%26quot%3Bcolor%3A%20rgb(51%2C%2051%2C%2051)%3B%20font-family%3A%20helvetica%3B%20font-size%3A%2012px%3B%20font-style%3A%20italic%3B%20font-weight%3A%20400%3B%20letter-spacing%3A%20normal%3B%20text-align%3A%20center%3B%20text-indent%3A%200px%3B%20text-transform%3A%20none%3B%20word-spacing%3A%200px%3B%20background-color%3A%20rgb(248%2C%20249%2C%20250)%3B%20display%3A%20inline%3B%20float%3A%20none%3B%26quot%3B%26gt%3BPersonnel%20Management%20System%20Interface%26lt%3B%2Fspan%26gt%3B%22%20style%3D%22text%3BwhiteSpace%3Dwrap%3Bhtml%3D1%3B%22%20vertex%3D%221%22%20parent%3D%221%22%3E%3CmxGeometry%20x%3D%22240%22%20y%3D%22110%22%20width%3D%22130%22%20height%3D%2230%22%20as%3D%22geometry%22%2F%3E%3C%2FmxCell%3E%3C%2Froot%3E%3C%2FmxGraphModel%3E&lt;/span&gt;" style="endArrow=none;dashed=1;html=1;startArrow=none;" parent="1" edge="1">
          <mxGeometry x="-0.4717" y="-430" width="50" height="50" relative="1" as="geometry">
            <mxPoint x="900" y="800" as="sourcePoint" />
            <mxPoint x="899.9999999999999" y="110" as="targetPoint" />
            <Array as="points">
              <mxPoint x="900" y="420" />
            </Array>
            <mxPoint as="offset" />
          </mxGeometry>
        </mxCell>
        <mxCell id="eQV93dDQAh3jfwYA0gwR-55" value="" style="endArrow=none;dashed=1;html=1;" parent="1" target="eQV93dDQAh3jfwYA0gwR-54" edge="1">
          <mxGeometry width="50" height="50" relative="1" as="geometry">
            <mxPoint x="900" y="780" as="sourcePoint" />
            <mxPoint x="900" y="110" as="targetPoint" />
          </mxGeometry>
        </mxCell>
        <mxCell id="eQV93dDQAh3jfwYA0gwR-56" value="12.Login()" style="html=1;verticalAlign=bottom;endArrow=block;entryX=0.06;entryY=0.093;entryDx=0;entryDy=0;entryPerimeter=0;" parent="1" target="eQV93dDQAh3jfwYA0gwR-54" edge="1">
          <mxGeometry width="80" relative="1" as="geometry">
            <mxPoint x="142" y="655" as="sourcePoint" />
            <mxPoint x="890" y="650" as="targetPoint" />
          </mxGeometry>
        </mxCell>
        <mxCell id="eQV93dDQAh3jfwYA0gwR-57" value="13.VerifyAIIdentity()" style="html=1;verticalAlign=bottom;endArrow=block;" parent="1" edge="1">
          <mxGeometry x="-0.2089" width="80" relative="1" as="geometry">
            <mxPoint x="905" y="670" as="sourcePoint" />
            <mxPoint x="905" y="689" as="targetPoint" />
            <Array as="points">
              <mxPoint x="975" y="670" />
              <mxPoint x="975" y="689" />
            </Array>
            <mxPoint as="offset" />
          </mxGeometry>
        </mxCell>
        <mxCell id="eQV93dDQAh3jfwYA0gwR-58" value="14.SetNewCaptain()" style="html=1;verticalAlign=bottom;endArrow=block;entryX=-0.26;entryY=0.478;entryDx=0;entryDy=0;entryPerimeter=0;" parent="1" source="eQV93dDQAh3jfwYA0gwR-2" target="eQV93dDQAh3jfwYA0gwR-54" edge="1">
          <mxGeometry width="80" relative="1" as="geometry">
            <mxPoint x="810" y="710" as="sourcePoint" />
            <mxPoint x="890" y="710" as="targetPoint" />
          </mxGeometry>
        </mxCell>
        <mxCell id="eQV93dDQAh3jfwYA0gwR-59" value="" style="ellipse;shape=umlControl;whiteSpace=wrap;html=1;" parent="1" vertex="1">
          <mxGeometry x="1000" y="30" width="80" height="90" as="geometry" />
        </mxCell>
        <mxCell id="eQV93dDQAh3jfwYA0gwR-60" value="&lt;span style=&quot;color: rgb(51 , 51 , 51) ; font-family: &amp;#34;helvetica&amp;#34; ; font-style: italic ; text-align: center&quot;&gt;Personnel Management System&lt;/span&gt;" style="text;whiteSpace=wrap;html=1;" parent="1" vertex="1">
          <mxGeometry x="980" y="110" width="160" height="30" as="geometry" />
        </mxCell>
        <mxCell id="eQV93dDQAh3jfwYA0gwR-65" value="" style="endArrow=none;dashed=1;html=1;entryX=0.5;entryY=1;entryDx=0;entryDy=0;entryPerimeter=0;startArrow=none;" parent="1" source="eQV93dDQAh3jfwYA0gwR-66" target="eQV93dDQAh3jfwYA0gwR-59" edge="1">
          <mxGeometry width="50" height="50" relative="1" as="geometry">
            <mxPoint x="1040" y="840" as="sourcePoint" />
            <mxPoint x="1070" y="120" as="targetPoint" />
          </mxGeometry>
        </mxCell>
        <mxCell id="eQV93dDQAh3jfwYA0gwR-66" value="" style="html=1;points=[];perimeter=orthogonalPerimeter;" parent="1" vertex="1">
          <mxGeometry x="1035" y="730" width="10" height="20" as="geometry" />
        </mxCell>
        <mxCell id="eQV93dDQAh3jfwYA0gwR-67" value="" style="endArrow=none;dashed=1;html=1;entryX=0.5;entryY=1;entryDx=0;entryDy=0;entryPerimeter=0;" parent="1" target="eQV93dDQAh3jfwYA0gwR-66" edge="1">
          <mxGeometry width="50" height="50" relative="1" as="geometry">
            <mxPoint x="1040" y="800" as="sourcePoint" />
            <mxPoint x="1040" y="120" as="targetPoint" />
          </mxGeometry>
        </mxCell>
        <mxCell id="eQV93dDQAh3jfwYA0gwR-54" value="" style="html=1;points=[];perimeter=orthogonalPerimeter;" parent="1" vertex="1">
          <mxGeometry x="895" y="640" width="10" height="130" as="geometry" />
        </mxCell>
        <mxCell id="eQV93dDQAh3jfwYA0gwR-68" value="15.UpdateCrewInfo()" style="html=1;verticalAlign=bottom;endArrow=block;entryX=0.5;entryY=0.5;entryDx=0;entryDy=0;entryPerimeter=0;" parent="1" target="eQV93dDQAh3jfwYA0gwR-66" edge="1">
          <mxGeometry width="80" relative="1" as="geometry">
            <mxPoint x="904" y="740" as="sourcePoint" />
            <mxPoint x="1000" y="740" as="targetPoint" />
            <Array as="points">
              <mxPoint x="940" y="740" />
            </Array>
          </mxGeometry>
        </mxCell>
      </root>
    </mxGraphModel>
  </diagram>
</mxfile>
